<?xml version="1.0" encoding="UTF-8" standalone="no"?>
<!-- Generator: Adobe Illustrator 19.2.1, SVG Export Plug-In . SVG Version: 6.00 Build 0)  -->

<svg
   version="1.1"
   id="layer"
   x="0px"
   y="0px"
   viewBox="0 0 98.800003 127.2"
   xml:space="preserve"
   sodipodi:docname="uos_logo.svg"
   width="98.800003"
   height="127.2"
   inkscape:version="1.1.2 (0a00cf5339, 2022-02-04)"
   xmlns:inkscape="http://www.inkscape.org/namespaces/inkscape"
   xmlns:sodipodi="http://sodipodi.sourceforge.net/DTD/sodipodi-0.dtd"
   xmlns="http://www.w3.org/2000/svg"
   xmlns:svg="http://www.w3.org/2000/svg"><defs
   id="defs65" /><sodipodi:namedview
   id="namedview63"
   pagecolor="#ffffff"
   bordercolor="#666666"
   borderopacity="1.0"
   inkscape:pageshadow="2"
   inkscape:pageopacity="0.0"
   inkscape:pagecheckerboard="0"
   showgrid="false"
   inkscape:zoom="1.2377301"
   inkscape:cx="304.18587"
   inkscape:cy="67.462206"
   inkscape:window-width="1846"
   inkscape:window-height="1016"
   inkscape:window-x="74"
   inkscape:window-y="27"
   inkscape:window-maximized="1"
   inkscape:current-layer="layer" />
<style
   type="text/css"
   id="style54">
	.st0{fill:#00557F;}
</style>

<path
   class="st0"
   d="m 94.1,26.2 c -0.1,0 -1.3,1 -2.6,1.3 -0.1,1 -0.6,2 -1.5,2.7 -0.7,0.5 -1.4,0.7 -2.2,0.7 -0.3,0 -0.6,0 -0.9,-0.1 -0.7,1.2 -2,2 -2,2.1 l -0.2,0.2 -0.2,-0.2 c -0.1,0 -1.3,-0.9 -2.1,-2.1 -0.3,0.1 -0.6,0.1 -0.8,0.1 -0.7,0 -1.5,-0.2 -2.2,-0.7 C 78.5,29.5 78,28.6 77.9,27.5 76.6,27.2 75.3,26.2 75.3,26.2 L 75.1,26 75.2,25.7 c 0,-0.1 0.5,-1.5 1.3,-2.6 -0.5,-0.9 -0.7,-2 -0.4,-3 0.3,-0.9 1,-1.7 1.8,-2.1 0.1,0 0.2,-0.1 0.3,-0.1 -0.1,-1.4 0.4,-2.8 0.4,-2.9 l 0.1,-0.3 H 79 c 0.1,0 1.6,0 2.9,0.5 0.7,-0.8 1.7,-1.3 2.8,-1.3 1.1,0 2.1,0.5 2.8,1.3 1.3,-0.5 2.8,-0.5 2.9,-0.5 h 0.3 l 0.1,0.3 c 0,0.1 0.5,1.5 0.4,2.9 0.1,0 0.2,0.1 0.2,0.1 0.9,0.4 1.5,1.2 1.8,2.1 0.3,1.1 0.2,2.2 -0.4,3 0.9,1.1 1.3,2.5 1.4,2.6 l 0.1,0.3 z m -5.6,53.5 c -3,9.4 -7.4,17.5 -13.1,24.1 -6.8,8 -15.6,13.9 -26,17.5 C 39,117.7 30.3,111.8 23.4,103.8 17.7,97.2 13.3,89 10.2,79.7 6,66.9 5.5,55.1 5.4,50.8 c 0.8,-0.3 1.9,-0.7 3.2,-1.2 0.9,2.7 2.9,5.2 6.2,7.5 4.4,3.1 9.1,4.4 9.3,4.5 0,0 9.6,2.8 15.3,4.5 3.6,1.2 3.5,3.8 2.9,5.7 0,0.1 -0.1,0.2 -0.1,0.3 -0.1,0.2 -0.2,0.5 -0.3,0.7 0,0 0,0 0,0 -0.1,0.2 -0.2,0.5 -0.3,0.7 -0.2,-0.2 -0.5,-2.3 -4.5,-4.3 -4,-2 -10,-1.1 -10.7,-0.7 -0.3,0.2 -0.4,0.3 -0.1,0.6 0.2,0.1 0.4,0.2 0.5,0.4 0.9,1 0.8,3.2 3.6,6.1 0.9,0.8 1.8,1.4 2.8,1.9 4,1.9 5.8,1 6.5,0.9 0,0.1 -0.1,0.3 -0.1,0.4 -6.1,10.7 -8.5,19.9 -8.8,27.6 l 1.2,1 c 2.4,2 4.9,3.8 7.6,5.5 v 0 l 2.2,1.3 c 2.4,1.3 4.9,2.4 7.5,3.4 7.2,-2.7 13.5,-6.5 18.9,-11.5 0,0 0.7,-0.7 1.1,-1.1 -0.8,-0.1 -1.6,-0.1 -2.4,-0.2 -10.3,-0.4 -13.3,-4.5 -11.5,-10.7 0.1,-0.2 0.4,-0.8 0,-1.2 -0.3,-0.3 -0.9,-0.1 -1.1,0 -10.6,5 -13.6,20 -13.6,20 0,0 -0.4,-11.9 7.9,-19.9 8.3,-8 15.3,-6.4 15.6,-6.4 3.4,0.8 4.1,-1.2 4.3,-2.8 0,-0.2 0.1,-0.4 0.3,-0.6 1.6,-1.1 3.3,-5.4 1.5,-7 -0.9,-0.8 -4.3,-1.7 -5.2,-2 -0.8,-0.3 -1.5,-0.5 -2.2,-0.9 -0.4,-0.2 -0.8,-0.5 -1,-1 -0.6,-1.8 -2.3,-2.7 -2.7,-3 3.5,-0.8 7.3,-2.8 11.3,-5.9 1.2,-1 2.2,-2 3,-3.1 0.8,-0.9 0.8,-1.8 2.2,-2.4 2.9,-1.4 2.8,-2.9 2.3,-3.4 -0.5,-0.5 -2.3,0.2 -2.5,0.4 0.1,-0.8 0,-1.7 -0.1,-2.5 0,0 0,-0.1 0,-0.1 0,-0.1 0,-0.1 0,-0.2 0,-0.1 0,-0.2 -0.1,-0.4 0,0 0,-0.1 0,-0.1 -0.6,-2.9 -2.2,-5.4 -3.9,-7.2 10.5,2 18.3,5 21.5,6.3 0.2,4.5 -0.2,16.2 -4.4,29 M 15.6,54.3 C 13.5,53 11.9,51 11.1,48.7 c 1.3,-0.4 2.8,-0.9 4.4,-1.4 0,0 0,0 0,0 -0.4,1.9 -0.6,4.6 0.1,7 M 4.5,26.2 4.3,26 4.4,25.7 C 4.4,25.6 4.9,24.2 5.7,23.1 5.2,22.2 5,21.1 5.3,20.1 5.6,19.2 6.3,18.4 7.1,18 7.2,18 7.3,17.9 7.4,17.9 7.3,16.5 7.8,15.1 7.8,15 l 0.1,-0.3 h 0.3 c 0.1,0 1.6,0 2.9,0.5 0.7,-0.8 1.7,-1.3 2.8,-1.3 1.1,0 2.1,0.5 2.8,1.3 1.3,-0.5 2.8,-0.5 2.9,-0.5 h 0.3 L 20,15 c 0,0.1 0.5,1.5 0.4,2.9 0.1,0 0.2,0.1 0.2,0.1 0.9,0.4 1.5,1.2 1.8,2.1 0.3,1.1 0.2,2.2 -0.4,3 0.9,1.1 1.3,2.5 1.4,2.6 l 0.1,0.3 -0.2,0.2 c -0.1,0 -1.3,1 -2.6,1.3 -0.1,1 -0.6,2 -1.5,2.7 -0.7,0.5 -1.4,0.7 -2.2,0.7 -0.3,0 -0.6,0 -0.9,-0.1 -0.7,1.2 -2,2 -2,2.1 l -0.2,0.2 -0.2,-0.2 c -0.1,0 -1.3,-0.9 -2.1,-2.1 -0.3,0.1 -0.6,0.1 -0.8,0.1 -0.7,0 -1.5,-0.2 -2.2,-0.7 C 7.7,29.5 7.2,28.6 7.1,27.5 5.8,27.2 4.6,26.3 4.5,26.2 m 48,30.8 v 0 c 0.1,-0.2 2.1,-4.5 3.4,-7.6 1.1,-2.8 -1.1,-5.6 -2.6,-7.1 5.1,0.2 9.9,0.7 14.4,1.4 0.6,0.6 1.3,1.1 1.4,1.6 -4.1,-0.4 -6.3,0.5 -6.1,2 0.1,0.6 1,0.8 1.8,0.6 0.7,-0.1 3.8,-0.4 6.1,1.3 1,0.8 1.7,2.1 1.8,3.9 0,0 0,0.1 0,0.1 0,0.2 0,0.3 0,0.5 0.1,2.8 -1.2,5.3 -3.8,7.3 -8.4,6.6 -13.3,5.7 -14,5.5 -2.3,-1.4 -3.4,-3.3 -3.4,-5.8 0.2,-1.9 1,-3.6 1,-3.7 m -4.1,-8.4 c 0.7,0.3 2.6,1.5 3.1,2.8 0.2,0.5 -0.2,1.1 -0.4,1.6 -0.7,1.4 -1.2,2.6 -1.3,2.7 -0.2,0.3 -1.1,2.3 -1.2,4.9 -0.1,1.7 0.2,3.9 1.8,5.9 -0.2,0 -0.3,0 -0.3,0 -1.5,-0.1 -3,0.1 -3.7,0.2 -0.7,0 -1,-0.3 -1.3,-0.7 -0.9,-1.3 -2.4,-2.5 -4.7,-3.1 -2.8,-0.8 -6.5,-1.8 -9.5,-2.6 0,0 0,0 0,0 -5.9,-1.6 -4.3,-5.1 -5.7,-5 -1.4,0.1 -0.7,2.5 -0.1,3.4 -2.4,-0.5 -3.6,-1.4 -3.6,-1.4 -4.3,-3.5 -4.1,-7.7 -3.2,-10.7 8.1,-2.2 19.1,-4.3 31.3,-4.3 0.1,0 0.3,0 0.4,0 1.4,1.1 4.2,3.8 3.2,6 -0.1,0.2 -0.1,0.3 -0.2,0.5 -1.8,-1.2 -3.6,-1.9 -3.9,-2.1 -0.8,-0.3 -1.5,-0.4 -1.7,0.2 -0.3,0.7 0.3,1.3 1,1.7 M 26.5,12.3 c 0,-0.1 0.1,-0.3 0.2,-0.4 0.1,-0.1 0.3,-0.1 0.4,-0.1 L 28.2,12 V 9.7 c 0,-0.2 0.1,-0.3 0.2,-0.4 0.1,-0.1 0.3,-0.1 0.5,-0.1 l 1,0.3 V 7.8 c 0,-0.4 0.2,-0.8 0.6,-1 0.2,-0.1 0.4,-0.1 0.5,-0.1 0.2,0 0.4,0.1 0.6,0.2 0.2,0.1 0.3,0.2 0.5,0.3 0.8,0.5 1.7,1.1 4.3,1.7 0.7,0.2 1.7,0.3 2.7,0.5 1.7,0.3 3.7,0.7 5.5,1.2 2.2,0.7 3.7,1.5 4.5,2.6 0.2,0.2 0.2,0.4 0.2,0.7 0,-0.2 0.1,-0.5 0.2,-0.7 0.9,-1.1 2.3,-1.9 4.5,-2.6 1.8,-0.5 3.8,-0.9 5.5,-1.2 1,-0.2 2,-0.4 2.7,-0.5 2.6,-0.6 3.5,-1.2 4.3,-1.7 0.2,-0.1 0.3,-0.2 0.5,-0.3 0.2,-0.1 0.4,-0.2 0.6,-0.2 0.2,0 0.4,0 0.5,0.1 0.3,0.2 0.6,0.6 0.6,1 v 1.7 l 1,-0.3 c 0.2,-0.1 0.3,0 0.5,0.1 0.1,0.1 0.2,0.2 0.2,0.4 V 12 l 1.1,-0.2 c 0.1,0 0.3,0 0.4,0.1 0.1,0.1 0.2,0.2 0.2,0.4 v 18.5 c 0,1.8 -1.3,2.5 -4.6,2.3 -11.2,-0.3 -15.4,2.6 -15.4,2.6 0,1 -1.1,1.7 -2.7,1.7 -1.7,0 -2.7,-0.6 -2.7,-1.7 0,0 -4.2,-2.9 -15.4,-2.6 -3.3,0.2 -4.6,-0.6 -4.6,-2.3 V 12.3 Z M 97,9.7 C 96.2,9.3 75.8,0 49.3,0 22.8,0 2.4,9.3 1.6,9.7 L 0,10.5 v 42.8 0 c 0.2,5.8 1.1,16.4 5,28.1 7.5,22.9 22.6,38.7 43.7,45.7 0.3,0.1 0.6,0.1 0.9,0.1 0.3,0 0.6,0 0.9,-0.1 21.1,-7 36.2,-22.8 43.5,-45.7 3.7,-11.6 4.6,-22.2 4.8,-28 v 0 -0.1 -42.7 z"
   id="path58" />
<path
   class="st0"
   d="m 11.6,18.8 c 0,0 -0.3,-0.4 -0.3,-1.2 0,-1.5 1.2,-2.6 2.6,-2.6 1.5,0 2.6,1.2 2.6,2.6 0,0.8 -0.3,1.2 -0.3,1.2 l -1.1,1.5 C 14.9,20.2 14.6,20.1 14.3,20.1 V 19 c 0,-0.2 -0.2,-0.4 -0.4,-0.4 -0.2,0 -0.4,0.2 -0.4,0.4 v 1.1 c -0.3,0 -0.5,0.1 -0.8,0.2 z m 4.9,2.9 1.1,-0.3 c 0.2,-0.1 0.5,0.1 0.5,0.3 0.1,0.2 0,0.5 -0.3,0.5 l -1.1,0.3 c 0,0.1 0,0.3 0,0.4 0,0.1 0,0.3 0,0.4 l 1.8,0.6 c 0,0 0.5,0.2 1.3,-0.1 1.4,-0.5 2.1,-1.9 1.7,-3.3 -0.2,-0.7 -0.7,-1.2 -1.3,-1.5 -0.6,-0.3 -1.3,-0.4 -2,-0.2 -0.8,0.2 -1.1,0.6 -1.1,0.7 L 16,21.1 c 0.2,0.1 0.3,0.3 0.5,0.6 m 1.1,-3.8 c 0.1,0 0.2,-0.1 0.3,-0.1 0.6,-0.2 1.1,-0.2 1.7,-0.1 0,-0.8 -0.2,-1.6 -0.3,-2.1 -0.4,0 -1.3,0.1 -2.1,0.4 0.3,0.5 0.4,1.1 0.4,1.7 0,0 0,0.1 0,0.2 M 10,17.8 c 0.1,0 0.2,0.1 0.3,0.1 0,-0.1 0,-0.2 0,-0.3 0,-0.6 0.1,-1.2 0.4,-1.7 C 9.9,15.6 9.1,15.6 8.6,15.6 8.5,16 8.3,16.9 8.3,17.7 8.9,17.6 9.4,17.6 10,17.8 m -2,6 c 0.7,0.2 1.2,0.1 1.3,0.1 l 1.8,-0.6 c 0,-0.1 0,-0.3 0,-0.4 0,-0.1 0,-0.3 0,-0.4 L 10,22.2 C 9.8,22.1 9.7,21.9 9.7,21.7 9.8,21.5 10,21.4 10.2,21.4 l 1.1,0.3 c 0.1,-0.3 0.3,-0.5 0.5,-0.7 l -1.1,-1.6 c 0,0 -0.3,-0.4 -1.1,-0.7 C 9.3,18.6 9.1,18.6 8.8,18.6 8.4,18.6 8,18.7 7.6,18.9 7,19.2 6.5,19.8 6.3,20.4 5.9,21.8 6.7,23.3 8,23.8 m 4.9,5 c 0.5,-0.6 0.5,-1.1 0.5,-1.2 v -1.9 c -0.3,-0.1 -0.5,-0.1 -0.8,-0.3 l -0.7,0.9 c -0.1,0.1 -0.2,0.2 -0.3,0.2 -0.1,0 -0.2,0 -0.3,-0.1 -0.2,-0.1 -0.2,-0.4 -0.1,-0.6 l 0.7,-0.9 c -0.2,-0.2 -0.4,-0.4 -0.5,-0.7 l -1.8,0.6 c 0,0 -0.5,0.2 -1,0.8 -0.9,1.2 -0.6,2.8 0.6,3.7 1.2,0.9 2.9,0.7 3.7,-0.5 m 35.3,5.8 V 14 c 0,-0.6 -2.8,-2.5 -9.1,-3.3 C 32.8,9.8 31,7.9 31,7.9 v 22.2 c 1.1,0.9 1.3,0.8 8.5,1.6 7.6,0.9 8.7,2.9 8.7,2.9 m 10.9,-2.9 c 7.3,-0.8 7.5,-0.7 8.5,-1.6 V 7.9 c 0,0 -1.8,1.9 -8.1,2.8 -6.3,0.9 -9.1,2.8 -9.1,3.3 v 20.6 c 0,0 1.1,-2 8.7,-2.9 M 7.8,25.1 C 7.9,25 7.9,24.9 8,24.9 c -0.1,0 -0.2,0 -0.3,-0.1 -0.6,-0.2 -1.1,-0.5 -1.5,-0.9 -0.5,0.6 -0.8,1.4 -1,1.9 0.4,0.2 1.1,0.7 1.9,0.9 0.2,-0.6 0.4,-1.1 0.7,-1.6 m 6.3,4.3 C 14,29.3 14,29.2 13.9,29.2 c 0,0.1 -0.1,0.2 -0.2,0.2 -0.4,0.5 -0.8,0.9 -1.3,1.1 0.5,0.7 1.1,1.2 1.5,1.5 0.4,-0.3 1,-0.8 1.5,-1.5 -0.5,-0.2 -1,-0.6 -1.3,-1.1 m 6,-4.6 c -0.1,0 -0.2,0.1 -0.3,0.1 0.1,0.1 0.1,0.1 0.2,0.2 0.4,0.5 0.6,1 0.7,1.6 0.8,-0.2 1.5,-0.7 1.9,-0.9 -0.2,-0.4 -0.5,-1.2 -1,-1.9 -0.4,0.4 -0.9,0.7 -1.5,0.9 m -1.8,0.1 c -0.1,0 -0.1,0 0,0 L 16.5,24.3 C 16.4,24.5 16.2,24.8 16,25 l 0.7,0.9 c 0.1,0.2 0.1,0.5 -0.1,0.6 -0.1,0.1 -0.2,0.1 -0.3,0.1 -0.1,0 -0.3,-0.1 -0.3,-0.2 l -0.7,-0.9 c -0.2,0.1 -0.5,0.2 -0.8,0.3 v 2 c 0,0 0,0.5 0.5,1.2 0.9,1.2 2.5,1.4 3.7,0.6 1.2,-0.9 1.4,-2.5 0.6,-3.7 -0.6,-0.9 -1,-1 -1,-1 m -4.4,0.2 c 1.2,0 2.2,-1 2.2,-2.2 0,-1.2 -1,-2.2 -2.2,-2.2 -1.2,0 -2.2,1 -2.2,2.2 0,1.2 1,2.2 2.2,2.2 M 89,24.9 c 0,0 0,0 0,0 l -1.8,-0.6 c -0.1,0.2 -0.3,0.5 -0.5,0.7 l 0.7,0.9 c 0.1,0.2 0.1,0.5 -0.1,0.6 -0.1,0.1 -0.2,0.1 -0.3,0.1 -0.1,0 -0.3,-0.1 -0.3,-0.2 L 86,25.5 c -0.2,0.1 -0.5,0.2 -0.8,0.3 v 2 c 0,0 0,0.5 0.5,1.2 0.9,1.2 2.5,1.4 3.7,0.6 1.2,-0.9 1.4,-2.5 0.6,-3.7 -0.5,-0.9 -1,-1 -1,-1 m 3.2,-4.4 C 92,19.8 91.5,19.3 90.9,19 c -0.6,-0.3 -1.3,-0.4 -2,-0.2 -0.7,0.2 -1.1,0.6 -1.1,0.7 l -1.1,1.6 c 0.2,0.2 0.4,0.4 0.5,0.7 l 1.1,-0.3 c 0.2,-0.1 0.5,0 0.5,0.3 0.1,0.2 -0.1,0.5 -0.3,0.5 l -1.1,0.4 c 0,0.1 0,0.3 0,0.4 0,0.1 0,0.3 0,0.4 l 1.8,0.6 c 0,0 0.5,0.1 1.3,-0.1 1.4,-0.7 2.2,-2.2 1.7,-3.5 m -7.4,8.9 c -0.1,-0.1 -0.1,-0.2 -0.2,-0.2 0,0.1 -0.1,0.2 -0.2,0.2 -0.4,0.5 -0.8,0.9 -1.3,1.1 0.5,0.7 1.1,1.2 1.5,1.5 0.4,-0.3 1,-0.8 1.5,-1.5 -0.5,-0.2 -0.9,-0.6 -1.3,-1.1 m 6.1,-4.6 c -0.1,0 -0.2,0.1 -0.3,0.1 0.1,0.1 0.1,0.1 0.2,0.2 0.4,0.5 0.6,1 0.7,1.6 0.8,-0.2 1.5,-0.7 1.9,-0.9 -0.2,-0.4 -0.5,-1.2 -1,-1.9 -0.5,0.4 -1,0.7 -1.5,0.9 m -7.2,4 c 0.5,-0.6 0.5,-1.1 0.5,-1.2 v -1.9 c -0.3,-0.1 -0.5,-0.1 -0.8,-0.3 l -0.7,0.9 c -0.1,0.1 -0.2,0.2 -0.3,0.2 -0.1,0 -0.2,0 -0.3,-0.1 C 81.9,26.3 81.9,26 82,25.8 l 0.7,-0.9 c -0.2,-0.2 -0.4,-0.4 -0.5,-0.7 l -1.8,0.6 c 0,0 -0.5,0.2 -1,0.8 -0.9,1.2 -0.6,2.8 0.6,3.7 1.2,0.9 2.8,0.7 3.7,-0.5 m -1.2,-5.9 c 0,1.2 1,2.2 2.2,2.2 1.2,0 2.2,-1 2.2,-2.2 0,-1.2 -1,-2.2 -2.2,-2.2 -1.2,0 -2.2,1 -2.2,2.2 m -2.5,1 1.8,-0.6 c 0,-0.1 0,-0.3 0,-0.4 0,-0.1 0,-0.3 0,-0.4 l -1.1,-0.3 c -0.2,-0.1 -0.3,-0.3 -0.3,-0.5 0.1,-0.2 0.3,-0.3 0.5,-0.3 l 1.1,0.3 c 0.1,-0.2 0.3,-0.5 0.5,-0.7 l -1.1,-1.6 c 0,0 -0.3,-0.4 -1.1,-0.7 -0.3,-0.1 -0.5,-0.1 -0.8,-0.1 -0.4,0 -0.8,0.1 -1.2,0.3 -0.6,0.3 -1.1,0.9 -1.3,1.5 -0.5,1.4 0.3,2.9 1.7,3.3 0.8,0.3 1.3,0.2 1.3,0.2 m 3.4,-3.5 c 0.2,-0.1 0.5,-0.2 0.8,-0.2 v -1.1 c 0,-0.2 0.2,-0.4 0.4,-0.4 0.2,0 0.4,0.2 0.4,0.4 v 1.1 c 0.3,0 0.5,0.1 0.8,0.2 l 1.1,-1.5 c 0,0 0.3,-0.4 0.3,-1.2 0,-1.5 -1.2,-2.6 -2.6,-2.6 -1.5,0 -2.6,1.2 -2.6,2.6 0,0.8 0.3,1.2 0.3,1.2 z m 4.9,-2.5 c 0.1,0 0.2,-0.1 0.3,-0.1 0.6,-0.2 1.1,-0.2 1.7,-0.1 0,-0.8 -0.2,-1.6 -0.3,-2.1 -0.4,0 -1.3,0.1 -2.1,0.4 0.3,0.5 0.4,1.1 0.4,1.7 0,0 0,0.1 0,0.2 m -11.3,6 c -0.5,0.6 -0.8,1.4 -1,1.9 0.4,0.2 1.1,0.7 1.9,0.9 0.1,-0.6 0.3,-1.1 0.7,-1.6 0.1,-0.1 0.1,-0.2 0.2,-0.2 -0.1,0 -0.2,0 -0.3,-0.1 -0.6,-0.2 -1.1,-0.5 -1.5,-0.9 m 3.7,-6.1 c 0.1,0 0.2,0.1 0.3,0.1 0,-0.1 0,-0.2 0,-0.3 0,-0.6 0.1,-1.2 0.4,-1.7 -0.8,-0.3 -1.6,-0.3 -2.1,-0.3 -0.1,0.4 -0.3,1.3 -0.3,2.1 0.6,-0.1 1.2,-0.1 1.7,0.1"
   id="path60" />
</svg>
